<?xml version="1.0" encoding="utf-8"?>
<!-- Generator: Adobe Illustrator 27.9.0, SVG Export Plug-In . SVG Version: 6.00 Build 0)  -->
<svg version="1.1" id="레이어_1" xmlns="http://www.w3.org/2000/svg" xmlns:xlink="http://www.w3.org/1999/xlink" x="0px"
	 y="0px" viewBox="0 0 200 100" style="enable-background:new 0 0 200 100;" xml:space="preserve">
<style type="text/css">
	.st0{fill:#6B6C6C;}
	.st1{fill:#A50034;}
	.st2{fill:#FFFFFF;}
	.st3{fill:#1D2088;}
	.st4{fill:#2D91B0;}
	.st5{fill:#26ACC7;}
	.st6{fill:#286584;}
	.st7{fill:#2D84A4;}
	.st8{fill:#2C95B4;}
	.st9{fill:#45C4D8;}
	.st10{fill:#234E6B;}
	.st11{fill:#1D3C55;}
	.st12{fill:#2A6D8D;}
	.st13{fill:#244D6A;}
</style>
<image style="overflow:visible;" width="1000" height="241" xlink:href="27WuzSrl2i.png"  transform="matrix(0.1513 0 0 0.1513 -194.5706 34.2093)">
</image>
<image style="overflow:visible;" width="863" height="395" xlink:href="3066A183.jpg"  transform="matrix(0.2006 0 0 0.2006 -866.5436 -111.547)">
</image>
<path class="st0" d="M-536.1-85.2v4.5h6.1v1.1c0,4.6-1.8,7-6.8,8.6l1.9,4.3c3.4-0.8,6.7-2.8,8.1-5.6c1.5,2.8,4.7,4.7,7.6,5.4
	l2.4-4.8c-4.3-0.9-7.4-3.3-7.4-7.8v-1.1h6v-4.5L-536.1-85.2C-536-85.2-536.1-85.2-536.1-85.2z M-508.5-85.8h-5.6v6.4h-5.2v4.6h5.2
	v11.7h4.9c0.4-1.6,0.7-4.3,0.7-6.2L-508.5-85.8L-508.5-85.8L-508.5-85.8z M-507.9-58.9h-16.4c-0.4,0-0.6-0.1-0.6-0.6v-6.6h-5.6v8.9
	c0,1.9,1,2.8,2.9,2.8h19.7L-507.9-58.9L-507.9-58.9L-507.9-58.9z M-504.7-85.3v4.4h6.3v2.1c0,5.6-1.1,9.2-6.9,11.7l2.2,3.9
	c3.3-1.2,6.4-3.6,7.8-6.6c1.4,2.8,4.4,5.2,7.3,6.3l2.6-4.6c-5.6-2.1-7.5-5.4-7.5-10.8v-2.1h6.2v-4.4L-504.7-85.3
	C-504.7-85.3-504.7-85.3-504.7-85.3z M-472.5-77.5h-5.5v-8.4h-5.3v31.5h4.7c0.4-1.9,0.7-5,0.7-7.5v-11h5.5
	C-472.5-72.9-472.5-77.5-472.5-77.5z M-582.2-54.8h12.7v-5.9h-14.4v-24.5h-6.9v30.4L-582.2-54.8L-582.2-54.8z M-554.2-66.4h5.6v5.3
	c-1,0.4-3.1,0.8-5,0.8c-6.2,0-8.3-3.2-8.3-9.7c0-6.5,2-9.9,8.2-9.9c3.5,0,5.4,1.1,7.1,3.2l4.3-4c-2.6-3.8-7.2-5-11.5-5
	c-9.7,0-14.8,5.4-14.8,15.6c0,10.2,4.6,15.7,14.8,15.7c4.6,0,9.2-1.2,11.7-3V-72h-12L-554.2-66.4L-554.2-66.4z"/>
<path class="st1" d="M-624.3-46.5c12.8,0,23.2-10.5,23.2-23.5s-10.4-23.5-23.2-23.5c-12.8,0-23.2,10.5-23.2,23.5
	S-637.1-46.5-624.3-46.5z"/>
<path class="st2" d="M-625.2-80.3v20.6h6.5v-1.8h-4.6v-18.8L-625.2-80.3L-625.2-80.3z M-631.7-74.7c1.5,0,2.8-1.3,2.8-2.8
	c0-1.5-1.3-2.8-2.8-2.8c-1.5,0-2.8,1.3-2.8,2.8C-634.5-76-633.3-74.7-631.7-74.7z"/>
<path class="st2" d="M-623.4-89.7h-0.9c-10.7,0-19.4,8.8-19.4,19.7c0,5.3,2,10.2,5.7,13.9c3.7,3.7,8.6,5.8,13.7,5.8
	c5.2,0,10.1-2,13.7-5.8c3.7-3.7,5.7-8.7,5.7-13.9v-0.9h-13.9v1.8h12v0.2c-0.6,9.3-8.3,16.6-17.6,16.6c-4.7,0-9.1-1.9-12.4-5.2
	c-3.3-3.3-5.2-7.9-5.2-12.6c0-4.8,1.8-9.2,5.2-12.6c3.3-3.4,7.7-5.2,12.4-5.2h0.9L-623.4-89.7C-623.3-89.6-623.4-89.7-623.4-89.7z"
	/>
<image style="overflow:visible;" width="329" height="146" xlink:href="커스텀그라운드.png"  transform="matrix(0.3712 0 0 0.3712 -401.0645 -97.0827)">
</image>
<image style="overflow:visible;" width="430" height="210" xlink:href="30b50c1f668d9.png"  transform="matrix(0.3045 0 0 0.3045 -1066.6351 135.96)">
</image>
<image style="overflow:visible;" width="758" height="238" xlink:href="3066A181.jpg"  transform="matrix(0.2453 0 0 0.2453 -874.2214 23.0293)">
</image>
<image style="overflow:visible;" width="999" height="464" xlink:href="3066A182.jpg"  transform="matrix(0.1769 0 0 0.1769 11.621 8.294)">
</image>
<image style="overflow:visible;" width="700" height="236" xlink:href="nc소프트.jpg"  transform="matrix(0.2785 0 0 0.2785 -1097.4678 -102.8447)">
</image>
<image style="overflow:visible;" width="285" height="60" xlink:href="한국직업평가진흥협회.png"  transform="matrix(0.5976 0 0 0.5976 -425.8548 32.0713)">
</image>
<image style="overflow:visible;" width="783" height="144" xlink:href="h.png"  transform="matrix(0.25 0 0 0.25 2.125 -88.1002)">
</image>
<image style="overflow:visible;" width="932" height="174" xlink:href="에이블런.png"  transform="matrix(0.2112 0 0 0.2112 -658.8387 33.8514)">
</image>
<image style="overflow:visible;" width="300" height="118" xlink:href="FED557BA.jpg"  transform="matrix(0.6504 0 0 0.6504 -877.561 371.626)">
</image>
<image style="overflow:visible;" width="270" height="127" xlink:href="지구랭.png"  transform="matrix(0.75 0 0 0.75 -1101.25 2.375)">
</image>
<path class="st3" d="M-758,159.1v24.6l6.9-1v-6.1l14.1-1.9v6.1l6.9-1v-24.6L-758,159.1z M-737,167.8l-14.1,1.9V165l14.1-1.9V167.8z"
	/>
<path class="st3" d="M-797.6,175.9c0,3.5-2.9,6.7-6.4,7.2l-2.5,0.3c-3.5,0.5-6.4-2-6.4-5.5v-11.4l-6.9,1v11.4
	c0,7.3,6,12.4,13.4,11.4l2.5-0.3c7.4-1,13.4-7.8,13.4-15v-11.4l-6.9,1L-797.6,175.9L-797.6,175.9z"/>
<path class="st3" d="M-760.5,159.4l-6.9,1V175l-14.1-12.7l-7,1v24.6l6.9-1v-14.7l14.1,12.7l7-1V159.4z"/>
<path class="st3" d="M-840,161.1v6.9l10.5-1.4v26.9l6.9-1v-26.9l92.5-12.7l-15.4-8.4v3.7L-840,161.1z"/>
<path d="M-653.7,163v-2.5c0-2.2,0.7-4,2.1-5.2c1.3-1.1,3.1-1.7,5.3-1.7h12.2v1.5h-12.3c-3.9,0-5.8,1.8-5.8,5.3v2.3
	c0,1.6,0.6,2.9,1.8,3.8c0.7,0.5,1.4,0.9,2.1,1c0.3,0.1,1.1,0.1,2.3,0.1h4.6c2.2,0,3.9,0.6,5.3,1.7c1.3,1.1,2,2.7,2,4.9v3
	c0,2.1-0.7,3.8-2.1,5c-0.8,0.6-1.6,1.1-2.4,1.3c-0.7,0.2-1.6,0.3-2.8,0.3h-12.3v-1.5h12.3c1.6,0,2.8-0.2,3.6-0.7
	c1.5-0.9,2.2-2.3,2.2-4.2v-3c0-3.4-1.9-5.1-5.8-5.1h-4.6c-0.6,0-1,0-1.3,0C-651.6,168.8-653.7,166.7-653.7,163"/>
<path d="M-641.4,184.5h-13.1v-3h13.1c1.5,0,2.5-0.2,3.2-0.6c1.3-0.7,1.9-1.9,1.9-3.6v-3c0-3-1.6-4.4-5-4.4h-4.6c-0.6,0-1.1,0-1.4,0
	c-5.9-0.6-7.1-4.1-7.1-7v-2.5c0-2.5,0.8-4.4,2.3-5.7c1.4-1.2,3.4-1.9,5.8-1.9h13v3h-13.1c-3.4,0-5.1,1.4-5.1,4.5v2.3
	c0,1.4,0.5,2.4,1.5,3.2c0.6,0.4,1.2,0.7,1.7,0.8c0.2,0,0.7,0.1,2.2,0.1h4.6c2.4,0,4.3,0.6,5.8,1.9c1.5,1.3,2.3,3.1,2.3,5.4v3
	c0,2.4-0.8,4.3-2.4,5.6c-0.9,0.7-1.8,1.2-2.7,1.4C-639.2,184.4-640.2,184.5-641.4,184.5 M-636,170.6c0.5,0.6,0.8,1.4,0.9,2.1
	C-635.2,171.9-635.5,171.2-636,170.6 M-647.5,168.4c0.1,0,0.2,0,0.3,0c0.3,0,0.7,0,1.2,0h4.6c1.3,0,2.4,0.2,3.2,0.5
	c-0.9-0.4-2-0.6-3.2-0.6h-4.6C-646.7,168.4-647.2,168.4-647.5,168.4 M-652.9,163.6c0.1,2.2,1.2,3.6,3.3,4.4
	c-0.4-0.2-0.8-0.4-1.2-0.7C-652.1,166.3-652.8,165-652.9,163.6"/>
<path d="M-632.6,163v-2.5c0-2.2,0.7-4,2.1-5.2c1.3-1.1,3.1-1.7,5.3-1.7h12.2v1.5h-12.3c-3.9,0-5.8,1.8-5.8,5.3v2.3
	c0,1.6,0.6,2.9,1.8,3.8c0.7,0.5,1.4,0.9,2.1,1c0.3,0.1,1.1,0.1,2.3,0.1h4.6c2.2,0,3.9,0.6,5.3,1.7c1.3,1.1,2,2.7,2,4.9v3
	c0,2.1-0.7,3.8-2.1,5c-0.8,0.6-1.6,1.1-2.4,1.3c-0.7,0.2-1.6,0.3-2.8,0.3h-12.3v-1.5h12.3c1.6,0,2.8-0.2,3.6-0.7
	c1.5-0.9,2.2-2.3,2.2-4.2v-3c0-3.4-1.9-5.1-5.8-5.1h-4.6c-0.6,0-1,0-1.3,0C-630.5,168.8-632.6,166.7-632.6,163"/>
<path d="M-620.3,184.5h-13.1v-3h13.1c1.5,0,2.5-0.2,3.2-0.6c1.3-0.7,1.9-1.9,1.9-3.6v-3c0-3-1.6-4.4-5-4.4h-4.6c-0.6,0-1.1,0-1.4,0
	c-5.9-0.6-7.1-4.1-7.1-7v-2.5c0-2.5,0.8-4.4,2.3-5.7c1.4-1.2,3.4-1.9,5.8-1.9h13v3h-13.1c-3.4,0-5.1,1.4-5.1,4.5v2.3
	c0,1.4,0.5,2.4,1.5,3.2c0.6,0.4,1.2,0.7,1.7,0.8c0.2,0,0.7,0.1,2.2,0.1h4.6c2.4,0,4.3,0.6,5.8,1.9c1.5,1.3,2.3,3.1,2.3,5.4v3
	c0,2.4-0.8,4.3-2.4,5.6c-0.9,0.7-1.8,1.2-2.7,1.4C-618.1,184.4-619.1,184.5-620.3,184.5 M-614.9,170.6c0.5,0.6,0.8,1.4,0.9,2.1
	C-614.1,171.9-614.4,171.2-614.9,170.6 M-626.4,168.4c0.1,0,0.2,0,0.3,0c0.3,0,0.7,0,1.2,0h4.6c1.3,0,2.4,0.2,3.2,0.5
	c-0.9-0.4-2-0.6-3.2-0.6h-4.6C-625.6,168.4-626.1,168.4-626.4,168.4 M-631.8,163.6c0.1,2.2,1.2,3.6,3.2,4.4
	c-0.4-0.2-0.8-0.4-1.2-0.7C-631,166.3-631.7,165-631.8,163.6"/>
<path d="M-610.1,177.3v-9.7c0-2.2,0.5-3.7,1.4-4.8c0.9-1,2.5-1.6,4.6-1.8c0.4,0,0.7,0,0.9,0l5.5,0c2.4,0,4,0.6,4.9,1.7
	c0.9,1.1,1.4,2.8,1.4,5.2l0,0.6l-17.4,7.6l0.1,1c0.2,2,0.6,3.4,1.2,4.1c0.8,0.8,2.1,1.2,4,1.2h12v1.3H-603c-2,0-3.7-0.5-4.9-1.4
	c-1.4-1.1-2.1-2.6-2.1-4.5C-610.1,177.9-610.1,177.3-610.1,177.3z M-592.8,167.6c0.1-0.5,0.1-0.8,0.1-0.9c-0.1-2.9-1.9-4.3-5.5-4.3
	h-4.6c-1.9,0-3.4,0.3-4.3,0.9c-1.1,0.7-1.6,2-1.6,3.9v7.4L-592.8,167.6z"/>
<path d="M-590.5,184.5H-603c-2.2,0-4-0.5-5.4-1.6c-1.6-1.2-2.4-2.9-2.4-5.1v-10.3c0-2.3,0.5-4.1,1.6-5.3c1.1-1.2,2.8-1.9,5.1-2.1
	c0.4,0,0.7,0,1,0l5.6,0c2.6,0,4.4,0.7,5.5,1.9c1,1.2,1.6,3.1,1.6,5.7l0,1.1l-17.4,7.6l0,0.4c0.2,2.3,0.7,3.2,1,3.6
	c0.6,0.7,1.8,1,3.5,1h12.8V184.5L-590.5,184.5z M-609.3,178.2c0,0.7,0.2,1.3,0.4,1.8C-609,179.5-609.2,178.9-609.3,178.2
	 M-602.8,163.2c-1.8,0-3.1,0.3-3.9,0.8c-0.9,0.6-1.3,1.7-1.3,3.2v6.2l14.5-6.3c0-0.2,0-0.3,0-0.4c0-1.5-0.6-3.6-4.7-3.6H-602.8z
	 M-595,162.1c0.8,0.3,1.4,0.7,1.9,1.3c-0.1-0.1-0.1-0.2-0.2-0.2C-593.7,162.7-594.2,162.4-595,162.1"/>
<path d="M-588.1,183.8v-17.1c0-3.8,2.2-5.7,6.6-5.7h5.4c4.3,0,6.5,1.9,6.5,5.7v17.1h-1.3v-17.1c0-2.8-1.7-4.3-5.2-4.3h-5.4
	c-3.5,0-5.2,1.4-5.2,4.3v17.1L-588.1,183.8L-588.1,183.8z"/>
<path d="M-568.9,184.5h-2.9v-17.9c0-1.6-0.5-3.5-4.4-3.5h-5.4c-4,0-4.5,2-4.5,3.5v17.9h-2.9v-17.8c0-3,1.3-6.5,7.3-6.5h5.4
	c6,0,7.3,3.5,7.3,6.5L-568.9,184.5L-568.9,184.5z"/>
<path d="M-566.1,163v-2.5c0-2.2,0.7-4,2.1-5.2c1.3-1.1,3.1-1.7,5.3-1.7h12.2v1.5h-12.3c-3.9,0-5.8,1.8-5.8,5.3v2.3
	c0,1.6,0.6,2.9,1.8,3.8c0.7,0.5,1.4,0.9,2.1,1c0.3,0.1,1.1,0.1,2.3,0.1h4.6c2.2,0,3.9,0.6,5.3,1.7c1.3,1.1,2,2.7,2,4.9v3
	c0,2.1-0.7,3.8-2.1,5c-0.8,0.6-1.6,1.1-2.4,1.3c-0.7,0.2-1.6,0.3-2.8,0.3h-12.3v-1.5h12.3c1.6,0,2.8-0.2,3.6-0.7
	c1.5-0.9,2.2-2.3,2.2-4.2v-3c0-3.4-1.9-5.1-5.8-5.1h-4.6c-0.6,0-1,0-1.3,0C-563.9,168.8-566.1,166.7-566.1,163"/>
<path d="M-553.8,184.5h-13.1v-3h13.1c1.5,0,2.5-0.2,3.2-0.6c1.3-0.7,1.9-1.9,1.9-3.6v-3c0-3-1.6-4.4-5-4.4h-4.6c-0.6,0-1.1,0-1.4,0
	c-5.9-0.6-7.1-4.1-7.1-7v-2.5c0-2.5,0.8-4.4,2.3-5.7c1.4-1.2,3.4-1.9,5.8-1.9h13v3h-13c-3.4,0-5.1,1.4-5.1,4.5v2.3
	c0,1.4,0.5,2.4,1.5,3.2c0.6,0.4,1.2,0.7,1.7,0.8c0.2,0,0.7,0.1,2.2,0.1h4.6c2.4,0,4.3,0.6,5.8,1.9c1.5,1.3,2.3,3.1,2.3,5.4v3
	c0,2.4-0.8,4.3-2.4,5.6c-0.9,0.7-1.8,1.2-2.7,1.4C-551.5,184.4-552.5,184.5-553.8,184.5 M-548.3,170.6c0.5,0.6,0.8,1.4,0.9,2.1
	C-547.5,171.9-547.8,171.2-548.3,170.6 M-559.9,168.4c0.1,0,0.2,0,0.3,0c0.3,0,0.7,0,1.2,0h4.6c1.3,0,2.4,0.2,3.2,0.5
	c-0.9-0.4-2-0.6-3.2-0.6h-4.6C-559,168.4-559.5,168.4-559.9,168.4 M-565.3,163.6c0.1,2.2,1.2,3.6,3.3,4.4c-0.4-0.2-0.8-0.4-1.2-0.7
	C-564.4,166.3-565.1,165-565.3,163.6"/>
<path d="M-505.1,183.8v-17.1c0-3.8,2.2-5.7,6.6-5.7h5.4c4.3,0,6.5,1.9,6.5,5.7v17.1h-1.3v-17.1c0-2.8-1.7-4.3-5.2-4.3h-5.4
	c-3.5,0-5.2,1.4-5.2,4.3v17.1L-505.1,183.8L-505.1,183.8z"/>
<path d="M-485.9,184.5h-2.9v-17.9c0-1.6-0.5-3.5-4.4-3.5h-5.4c-4,0-4.5,2-4.5,3.5v17.9h-2.9v-17.8c0-3,1.3-6.5,7.3-6.5h5.4
	c6,0,7.3,3.5,7.3,6.5V184.5z"/>
<path d="M-483.8,177.3v-9.7c0-2.2,0.5-3.7,1.4-4.8c0.9-1,2.5-1.6,4.6-1.8c0.4,0,0.7,0,0.9,0l5.5,0c2.3,0,4,0.6,4.9,1.7
	c0.9,1.1,1.4,2.8,1.4,5.2l0,0.6l-17.4,7.6l0.1,1c0.2,2,0.6,3.4,1.2,4.1c0.8,0.8,2.1,1.2,4,1.2h12v1.3h-11.7c-2,0-3.7-0.5-4.9-1.4
	c-1.4-1.1-2.1-2.6-2.1-4.5L-483.8,177.3L-483.8,177.3z M-466.5,167.6c0.1-0.5,0.1-0.8,0.1-0.9c-0.1-2.9-1.9-4.3-5.5-4.3h-4.6
	c-1.9,0-3.4,0.3-4.3,0.9c-1.1,0.7-1.6,2-1.6,3.9v7.4L-466.5,167.6z"/>
<path d="M-464.3,184.5h-12.5c-2.2,0-4-0.5-5.4-1.6c-1.6-1.2-2.4-2.9-2.4-5.1v-10.3c0-2.3,0.5-4.1,1.6-5.3c1.1-1.2,2.8-1.9,5.1-2.1
	c0.4,0,0.7,0,1,0l5.6,0c2.6,0,4.4,0.7,5.5,1.9c1.1,1.2,1.6,3.1,1.6,5.7l0,1.1l-17.4,7.6l0,0.4c0.2,2.3,0.7,3.2,1,3.6
	c0.6,0.7,1.8,1,3.5,1h12.8L-464.3,184.5L-464.3,184.5L-464.3,184.5z M-483,178.2c0,0.7,0.2,1.3,0.4,1.8
	C-482.8,179.5-482.9,178.9-483,178.2 M-476.5,163.2c-1.8,0-3.1,0.3-3.9,0.8c-0.9,0.6-1.3,1.7-1.3,3.2v6.2l14.5-6.3
	c0-0.2,0-0.3,0-0.4c0-1.5-0.6-3.6-4.7-3.6H-476.5z M-468.7,162.1c0.8,0.3,1.4,0.7,1.9,1.3c-0.1-0.1-0.1-0.2-0.2-0.2
	C-467.4,162.7-467.9,162.4-468.7,162.1"/>
<g>
	<polygon class="st4" points="-525,177.8 -511.1,173.9 -516.5,185.3 	"/>
	<polygon class="st5" points="-525,177.8 -521.4,163.7 -511.1,173.9 	"/>
	<polygon class="st6" points="-521.4,163.7 -525,177.8 -533.3,168.8 	"/>
	<polygon class="st7" points="-511.1,173.9 -507.7,175.8 -516.5,185.3 	"/>
	<polygon class="st8" points="-511.1,173.9 -510.8,162.5 -507.7,175.8 	"/>
	<polygon class="st9" points="-510.8,162.5 -511.1,173.9 -521.4,163.7 	"/>
	<polygon class="st10" points="-530.2,182.1 -525,177.8 -516.5,185.3 	"/>
	<polygon class="st11" points="-530.2,182.1 -533.3,168.8 -525,177.8 	"/>
	<polygon class="st12" points="-524.5,159.3 -510.8,162.5 -521.4,163.7 	"/>
	<polygon class="st13" points="-524.5,159.3 -521.4,163.7 -533.3,168.8 	"/>
</g>
<path d="M-534.1,162.3V161h-6.4v-7.3h-1.3v20.6l0,0v3c0,2.1,0.5,3.8,1.9,5c0.8,0.6,1.6,1.1,2.4,1.3c0.7,0.2,1.6,0.3,2.8,0.3h0.6
	v-1.5h-0.6c-1.6,0-2.8-0.2-3.6-0.7c-1.5-0.9-2.2-2.3-2.2-4.1v-15.1H-534.1z"/>
<path d="M-533.4,184.5h-1.4c-1.3,0-2.3-0.1-3-0.3c-0.9-0.3-1.8-0.7-2.7-1.4c-1.5-1.3-2.2-3.1-2.2-5.6v-3.9l0,0v-20.4h2.9v7.3h6.5
	v2.9h-6.5v14.4c0,1.6,0.6,2.7,1.9,3.5c0.7,0.4,1.7,0.6,3.2,0.6h1.4L-533.4,184.5L-533.4,184.5z"/>
<rect x="-328.4" y="147.5" width="4.6" height="10.1"/>
<rect x="-286.2" y="147.5" width="4.4" height="10.1"/>
<rect x="-279.7" y="147.5" width="4.4" height="10.1"/>
<path d="M-368.9,146.7c-3.2,0-5.9,2.6-5.9,5.9s2.6,5.9,5.9,5.9c3.2,0,5.9-2.6,5.9-5.9S-365.7,146.7-368.9,146.7z M-366.7,152.5
	c0,1.2-1,2.2-2.2,2.2c-1.2,0-2.2-1-2.2-2.2s1-2.2,2.2-2.2C-367.7,150.3-366.7,151.3-366.7,152.5z"/>
<path d="M-404.7,188.2V156h6.2l13.4,20.5c0.1,0.1,0.3,0.4,0.6,1c0.3,0.6,0.6,1.1,0.8,1.5v-23h5.9v32.2h-6.2l-13.4-20.6
	c-0.1-0.1-0.3-0.4-0.6-1c-0.4-0.7-0.7-1.2-0.8-1.5v23.2C-398.8,188.2-404.7,188.2-404.7,188.2z"/>
<path d="M-371.9,179.5v-14.2h5.8v12.8c0,3.5,1.6,5.2,4.6,5.2c1.6,0,2.9-0.6,3.9-1.7c0.9-1.1,1.4-2.7,1.4-4.5v-11.8h5.8v22.8h-5.8
	v-3.6c-1.5,2.8-3.9,4.2-7.3,4.2c-2.5,0-4.5-0.8-6.1-2.4C-371.1,184.8-371.9,182.5-371.9,179.5L-371.9,179.5L-371.9,179.5z"/>
<path d="M-339,156v16.3l6.9-6.9h7.2l-8.3,8.1l9.4,14.7h-6.7l-6.8-10.7l-1.7,1.7v9h-5.8V156H-339z"/>
<path d="M-300,188.2h-5.9c-0.7-1-1.1-2.2-1.1-3.6c-1.6,2.9-4.1,4.3-7.6,4.3c-2.3,0-4.1-0.7-5.5-2s-2.1-3-2.1-5.2s0.8-3.9,2.3-5.2
	c1.5-1.3,3.5-2.1,5.8-2.4l6.9-1.1v-0.9c0-2.3-1.4-3.4-4.2-3.4c-1.3,0-2.3,0.2-3,0.7c-0.7,0.5-1.1,1.1-1.1,1.8c0,0.2,0,0.4,0.1,0.6
	l-5.2,1.7c-0.3-0.6-0.4-1.3-0.4-1.9c0-1.9,0.9-3.5,2.6-4.9c1.7-1.4,4.1-2.1,7-2.1c6.7,0,10,2.8,10,8.3v9.5
	C-301.6,184.8-301.1,186.7-300,188.2L-300,188.2L-300,188.2z M-313.3,184.1c1.7,0,3.2-0.6,4.3-1.7c1.1-1.1,1.7-2.8,1.7-4.9v-0.4
	l-5.5,0.9c-2.6,0.4-3.8,1.6-3.8,3.4c0,0.9,0.3,1.6,0.9,2S-314.3,184.1-313.3,184.1z"/>
<path d="M-290.6,156v16.3l6.9-6.9h7.2l-8.3,8.1l9.4,14.7h-6.7l-6.8-10.7l-1.7,1.7v9h-5.8V156H-290.6L-290.6,156L-290.6,156z"/>
<image style="overflow:visible;" width="250" height="100" xlink:href="logo-attr03.png"  transform="matrix(0.7071 0 0 0.7071 11.6082 132.9103)">
</image>
<image style="overflow:visible;" width="400" height="133" xlink:href="싱크트리.png"  transform="matrix(0.4902 0 0 0.4902 -436.0635 255.2754)">
</image>
<image style="overflow:visible;" width="250" height="118" xlink:href="67bc9ca556187.png"  transform="matrix(0.6304 0 0 0.6304 -638.7999 252.8065)">
</image>
<image style="overflow:visible;" width="180" height="208" xlink:href="user_logo.png"  transform="matrix(0.4112 0 0 0.4112 -818.2426 247.2348)">
</image>
<g>
	
		<image style="overflow:visible;" width="616" height="100" xlink:href="logo-light.png"  transform="matrix(0.3264 0 0 0.3264 -220.5188 -86.4182)">
	</image>
</g>
<image style="overflow:visible;" width="300" height="102" xlink:href="FED557AA.jpg"  transform="matrix(0.6465 0 0 0.6465 -1097.871 260.7393)">
</image>
<image style="overflow:visible;" width="199" height="71" xlink:href="FED557AD.jpg"  transform="matrix(1 0 0 1 -219.5 252.371)">
</image>
<image style="overflow:visible;" width="225" height="87" xlink:href="FED557C1.jpg"  transform="matrix(0.749 0 0 0.749 19.0207 254.7985)">
</image>
<image style="overflow:visible;" width="319" height="158" xlink:href="images.png"  transform="matrix(0.542 0 0 0.542 -206.4415 127.1857)">
</image>
</svg>
