<?xml version="1.0" encoding="UTF-8"?>
<svg id="_레이어_1" data-name="레이어 1" xmlns="http://www.w3.org/2000/svg" viewBox="0 0 200 100">
  <defs>
    <style>
      .cls-1 {
        fill: #1d2088;
        stroke-width: 0px;
      }
    </style>
  </defs>
  <path class="cls-1" d="m121.96,39.05v24.59l6.94-.95v-6.1l14.12-1.93v6.1l6.95-.95v-24.59l-28.01,3.84Zm21.06,8.74l-14.12,1.93v-4.76l14.12-1.93v4.76Z"/>
  <path class="cls-1" d="m82.38,55.86c0,3.5-2.88,6.74-6.43,7.23l-2.53.35c-3.54.49-6.43-1.97-6.43-5.47v-11.38l-6.94.95v11.38c0,7.29,6,12.39,13.37,11.38l2.53-.35c7.37-1.01,13.37-7.76,13.37-15.05v-11.37l-6.94.95v11.38h0Z"/>
  <path class="cls-1" d="m119.47,39.4l-6.94.95v14.67l-14.06-12.74-7,.96v24.59l6.94-.95v-14.67l14.06,12.75,7-.96v-24.59Z"/>
  <path class="cls-1" d="m40,41.13v6.86l10.53-1.44v26.89l6.94-.95v-26.89l92.49-12.68-15.44-8.35v3.66l-94.52,12.9Z"/>
</svg>