<?xml version="1.0" encoding="UTF-8"?>
<svg id="_레이어_1" data-name="레이어 1" xmlns="http://www.w3.org/2000/svg" viewBox="0 0 200 100">
  <defs>
    <style>
      .cls-1 {
        fill: #2a6d8d;
      }

      .cls-1, .cls-2, .cls-3, .cls-4, .cls-5, .cls-6, .cls-7, .cls-8, .cls-9, .cls-10, .cls-11 {
        stroke-width: 0px;
      }

      .cls-2 {
        fill: #45c4d8;
      }

      .cls-3 {
        fill: #244d6a;
      }

      .cls-4 {
        fill: #1d3c55;
      }

      .cls-5 {
        fill: #2d91b0;
      }

      .cls-7 {
        fill: #286584;
      }

      .cls-8 {
        fill: #2c95b4;
      }

      .cls-9 {
        fill: #26acc7;
      }

      .cls-10 {
        fill: #2d84a4;
      }

      .cls-11 {
        fill: #234e6b;
      }
    </style>
  </defs>
  <path class="cls-6" d="m6.27,43.03v-2.54c0-2.24.68-3.96,2.06-5.16,1.28-1.12,3.05-1.68,5.31-1.68h12.24v1.46h-12.28c-3.88,0-5.82,1.77-5.82,5.31v2.33c0,1.61.6,2.89,1.8,3.84.69.52,1.38.85,2.07.99.34.06,1.12.09,2.32.09h4.64c2.18,0,3.93.56,5.27,1.68,1.33,1.12,2,2.74,2,4.86v3.01c0,2.15-.7,3.81-2.11,4.99-.78.63-1.58,1.06-2.41,1.29-.66.17-1.59.26-2.8.26H6.27v-1.46h12.28c1.61,0,2.8-.23,3.58-.69,1.5-.89,2.24-2.3,2.24-4.23v-2.98c0-3.42-1.92-5.13-5.76-5.13h-4.6c-.57,0-1-.02-1.29-.04-4.3-.43-6.45-2.49-6.45-6.19"/>
  <path class="cls-6" d="m18.55,64.53H5.5v-3h13.05c1.46,0,2.54-.2,3.19-.58,1.25-.75,1.87-1.92,1.87-3.56v-2.98c0-2.98-1.59-4.37-4.99-4.37h-4.6c-.61,0-1.06-.02-1.36-.05-5.9-.59-7.14-4.11-7.14-6.96v-2.54c0-2.46.78-4.39,2.32-5.74,1.42-1.24,3.38-1.87,5.82-1.87h13.01v3h-13.05c-3.45,0-5.05,1.44-5.05,4.54v2.33c0,1.38.49,2.44,1.51,3.24.58.44,1.18.73,1.75.84.17.03.72.07,2.16.07h4.64c2.35,0,4.29.62,5.76,1.86,1.51,1.27,2.27,3.1,2.27,5.45v3.01c0,2.38-.8,4.26-2.39,5.58-.86.7-1.76,1.18-2.7,1.44-.74.19-1.72.28-3.01.28m5.48-13.92c.49.64.78,1.37.94,2.12-.16-.83-.47-1.53-.94-2.12m-11.58-2.19c.11.01.22.02.34.04.27.03.67.04,1.21.04h4.6c1.31,0,2.36.19,3.22.51-.92-.38-2-.57-3.22-.57h-4.64c-.67,0-1.15,0-1.51-.02m-5.4-4.86c.14,2.21,1.19,3.64,3.25,4.37-.4-.19-.8-.43-1.19-.72-1.2-.94-1.89-2.16-2.06-3.65"/>
  <path class="cls-6" d="m27.37,43.03v-2.54c0-2.24.68-3.96,2.06-5.16,1.28-1.12,3.05-1.68,5.31-1.68h12.25v1.46h-12.28c-3.88,0-5.82,1.77-5.82,5.31v2.33c0,1.61.6,2.89,1.8,3.84.69.52,1.38.85,2.06.99.34.06,1.12.09,2.32.09h4.64c2.18,0,3.94.56,5.27,1.68,1.34,1.12,2,2.74,2,4.86v3.01c0,2.15-.71,3.81-2.11,4.99-.78.63-1.58,1.06-2.41,1.29-.66.17-1.6.26-2.8.26h-12.28v-1.46h12.28c1.61,0,2.8-.23,3.58-.69,1.49-.89,2.24-2.3,2.24-4.23v-2.98c0-3.42-1.92-5.13-5.76-5.13h-4.6c-.57,0-1-.02-1.29-.04-4.3-.43-6.45-2.49-6.45-6.19"/>
  <path class="cls-6" d="m39.65,64.53h-13.05v-3h13.05c1.46,0,2.53-.2,3.19-.58,1.25-.75,1.86-1.92,1.86-3.56v-2.98c0-2.98-1.59-4.37-4.99-4.37h-4.6c-.61,0-1.06-.02-1.37-.05-5.9-.59-7.14-4.11-7.14-6.96v-2.54c0-2.46.78-4.39,2.32-5.74,1.42-1.24,3.38-1.87,5.82-1.87h13.01v3h-13.05c-3.45,0-5.05,1.44-5.05,4.54v2.33c0,1.38.49,2.44,1.51,3.24.58.44,1.18.73,1.75.84.18.03.72.07,2.16.07h4.65c2.35,0,4.29.62,5.76,1.86,1.51,1.27,2.27,3.1,2.27,5.45v3.01c0,2.38-.8,4.26-2.39,5.58-.86.7-1.76,1.18-2.7,1.44-.74.19-1.72.28-3.01.28m5.48-13.92c.49.64.79,1.39.94,2.14-.16-.84-.47-1.55-.94-2.14m-11.58-2.19c.11.01.22.02.34.04.27.03.67.04,1.21.04h4.6c1.3,0,2.36.19,3.21.51-.92-.38-2-.57-3.21-.57h-4.65c-.67,0-1.15,0-1.51-.02m-5.41-4.86c.14,2.2,1.19,3.63,3.25,4.37-.4-.19-.8-.43-1.18-.72-1.2-.94-1.89-2.16-2.06-3.65"/>
  <path class="cls-6" d="m49.94,57.27v-9.67c0-2.15.47-3.74,1.4-4.77.93-1.03,2.46-1.63,4.58-1.81.37-.03.69-.04.95-.04l5.55.04c2.35.03,3.99.58,4.9,1.66.92,1.08,1.38,2.82,1.38,5.23v.6s-17.42,7.6-17.42,7.6l.09.99c.17,2.01.59,3.37,1.25,4.09.77.83,2.12,1.25,4.04,1.25h12.04v1.33h-11.71c-2.03,0-3.68-.47-4.93-1.42-1.4-1.06-2.1-2.55-2.1-4.47,0,0,0-.61,0-.61Zm17.29-9.63c.06-.46.09-.76.09-.9-.09-2.9-1.92-4.34-5.5-4.34h-4.6c-1.95,0-3.38.31-4.3.94-1.09.75-1.63,2.04-1.63,3.87v7.4l15.95-6.97Z"/>
  <path class="cls-6" d="m69.46,64.53h-12.48c-2.19,0-4.01-.53-5.4-1.57-1.6-1.21-2.41-2.92-2.41-5.08v-10.28c0-2.34.54-4.12,1.6-5.29,1.06-1.18,2.78-1.87,5.09-2.06.4-.03.74-.05,1.01-.05l5.55.05c2.57.03,4.42.68,5.48,1.93,1.05,1.23,1.56,3.1,1.56,5.73v1.1s-17.37,7.58-17.37,7.58l.04.44c.19,2.27.68,3.23,1.05,3.63.62.66,1.78,1,3.48,1h12.81v2.87h0Zm-18.74-6.29c.04.66.17,1.26.4,1.78-.17-.51-.31-1.1-.4-1.78m6.49-15.08c-1.78,0-3.09.27-3.87.81-.87.6-1.3,1.66-1.3,3.24v6.22l14.47-6.32c.02-.17.03-.3.03-.38-.05-1.52-.59-3.57-4.74-3.57h-4.6Zm7.83-1.02c.81.31,1.42.75,1.87,1.25-.05-.08-.11-.15-.17-.22-.39-.45-.95-.8-1.69-1.03"/>
  <path class="cls-6" d="m71.89,63.76v-17.06c0-3.82,2.19-5.73,6.58-5.73h5.38c4.33,0,6.49,1.91,6.49,5.73v17.06h-1.33v-17.15c0-2.84-1.72-4.27-5.16-4.27h-5.38c-3.5,0-5.25,1.42-5.25,4.27v17.15h-1.33Z"/>
  <path class="cls-6" d="m91.11,64.53h-2.87v-17.92c0-1.63-.5-3.5-4.39-3.5h-5.38c-4.01,0-4.48,2-4.48,3.5v17.92h-2.87v-17.83c0-2.96,1.27-6.5,7.35-6.5h5.38c6,0,7.26,3.53,7.26,6.5v17.83h0Z"/>
  <path class="cls-6" d="m93.94,43.03v-2.54c0-2.24.68-3.96,2.06-5.16,1.28-1.12,3.05-1.68,5.31-1.68h12.24v1.46h-12.28c-3.88,0-5.82,1.77-5.82,5.31v2.33c0,1.61.6,2.89,1.81,3.84.69.52,1.38.85,2.07.99.34.06,1.12.09,2.32.09h4.65c2.18,0,3.93.56,5.27,1.68,1.33,1.12,2,2.74,2,4.86v3.01c0,2.15-.71,3.81-2.11,4.99-.78.63-1.58,1.06-2.42,1.29-.66.17-1.59.26-2.8.26h-12.28v-1.46h12.28c1.61,0,2.8-.23,3.58-.69,1.5-.89,2.24-2.3,2.24-4.23v-2.98c0-3.42-1.92-5.13-5.76-5.13h-4.6c-.57,0-1-.02-1.29-.04-4.3-.43-6.45-2.49-6.45-6.19"/>
  <path class="cls-6" d="m106.22,64.53h-13.05v-3h13.05c1.46,0,2.54-.2,3.19-.58,1.26-.75,1.86-1.92,1.86-3.56v-2.98c0-2.98-1.59-4.37-4.99-4.37h-4.6c-.61,0-1.06-.02-1.36-.05-5.91-.59-7.14-4.11-7.14-6.96v-2.54c0-2.46.78-4.39,2.32-5.74,1.43-1.24,3.38-1.87,5.82-1.87h13.01v3h-13.05c-3.45,0-5.05,1.44-5.05,4.54v2.33c0,1.38.49,2.44,1.51,3.24.58.44,1.17.73,1.75.84.17.03.72.07,2.16.07h4.64c2.35,0,4.29.62,5.76,1.86,1.51,1.27,2.27,3.1,2.27,5.45v3.01c0,2.38-.8,4.26-2.39,5.58-.86.7-1.76,1.18-2.7,1.44-.74.19-1.72.28-3.01.28m5.49-13.92c.49.64.78,1.37.94,2.12-.16-.83-.47-1.53-.94-2.12m-11.58-2.19c.11.01.22.02.34.04.27.03.67.04,1.21.04h4.6c1.31,0,2.37.19,3.22.51-.92-.38-2-.57-3.22-.57h-4.64c-.67,0-1.15,0-1.51-.02m-5.41-4.86c.14,2.21,1.19,3.64,3.25,4.37-.4-.19-.8-.43-1.19-.72-1.2-.94-1.89-2.16-2.07-3.65"/>
  <path class="cls-6" d="m154.91,63.76v-17.06c0-3.82,2.19-5.73,6.58-5.73h5.38c4.33,0,6.49,1.91,6.49,5.73v17.06h-1.33v-17.15c0-2.84-1.72-4.27-5.16-4.27h-5.38c-3.5,0-5.25,1.42-5.25,4.27v17.15h-1.33Z"/>
  <path class="cls-6" d="m174.12,64.53h-2.87v-17.92c0-1.63-.5-3.5-4.39-3.5h-5.38c-4.01,0-4.48,2-4.48,3.5v17.92h-2.87v-17.83c0-2.96,1.28-6.5,7.35-6.5h5.38c6,0,7.26,3.53,7.26,6.5v17.83Z"/>
  <path class="cls-6" d="m176.22,57.27v-9.67c0-2.15.47-3.74,1.4-4.77.93-1.03,2.46-1.63,4.58-1.81.37-.03.69-.04.95-.04l5.55.04c2.35.03,3.99.58,4.9,1.66.92,1.08,1.38,2.82,1.38,5.23v.6s-17.42,7.6-17.42,7.6l.09.99c.17,2.01.59,3.37,1.25,4.09.77.83,2.12,1.25,4.04,1.25h12.04v1.33h-11.71c-2.03,0-3.68-.47-4.94-1.42-1.4-1.06-2.1-2.55-2.1-4.47v-.61h0Zm17.29-9.63c.06-.46.09-.76.09-.9-.09-2.9-1.92-4.34-5.5-4.34h-4.6c-1.95,0-3.38.31-4.3.94-1.09.75-1.63,2.04-1.63,3.87v7.4l15.95-6.97Z"/>
  <path class="cls-6" d="m195.74,64.53h-12.48c-2.19,0-4.01-.53-5.4-1.57-1.6-1.21-2.41-2.92-2.41-5.08v-10.28c0-2.34.54-4.12,1.6-5.29,1.06-1.18,2.78-1.87,5.09-2.06.4-.03.74-.05,1.01-.05l5.55.05c2.58.03,4.42.68,5.48,1.93,1.05,1.23,1.56,3.1,1.56,5.73v1.1s-17.37,7.58-17.37,7.58l.04.44c.19,2.27.68,3.23,1.05,3.63.62.66,1.79,1,3.48,1h12.81v2.87h0Zm-18.74-6.29c.04.66.17,1.25.4,1.78-.17-.51-.3-1.1-.4-1.78m6.49-15.08c-1.78,0-3.08.27-3.87.81-.87.6-1.3,1.66-1.3,3.24v6.22l14.48-6.32c.02-.17.03-.3.03-.38-.05-1.52-.59-3.57-4.74-3.57h-4.6Zm7.83-1.02c.81.31,1.42.75,1.87,1.25-.06-.08-.11-.15-.17-.22-.39-.45-.95-.8-1.69-1.03"/>
  <g>
    <polygon class="cls-5" points="135.02 57.81 148.95 53.9 143.53 65.28 135.02 57.81"/>
    <polygon class="cls-9" points="135.02 57.81 138.56 43.7 148.95 53.9 135.02 57.81"/>
    <polygon class="cls-7" points="138.56 43.7 135.02 57.81 126.72 48.77 138.56 43.7"/>
    <polygon class="cls-10" points="148.95 53.9 152.32 55.79 143.53 65.28 148.95 53.9"/>
    <polygon class="cls-8" points="148.95 53.9 149.25 42.45 152.32 55.79 148.95 53.9"/>
    <polygon class="cls-2" points="149.25 42.45 148.95 53.9 138.56 43.7 149.25 42.45"/>
    <polygon class="cls-11" points="129.78 62.11 135.02 57.81 143.53 65.28 129.78 62.11"/>
    <polygon class="cls-4" points="129.78 62.11 126.72 48.77 135.02 57.81 129.78 62.11"/>
    <polygon class="cls-1" points="135.51 39.28 149.25 42.45 138.56 43.7 135.51 39.28"/>
    <polygon class="cls-3" points="135.51 39.28 138.56 43.7 126.72 48.77 135.51 39.28"/>
  </g>
  <path class="cls-6" d="m125.87,42.35v-1.38h-6.45v-7.31h-1.33v20.56h-.02s0,3.01,0,3.01c0,2.15.54,3.81,1.95,4.99.78.63,1.58,1.06,2.41,1.29.66.17,1.6.26,2.8.26h.6v-1.46h-.61c-1.61,0-2.8-.23-3.58-.69-1.47-.88-2.21-2.26-2.24-4.14v-15.13h6.45Z"/>
  <path class="cls-6" d="m126.61,64.53h-1.37c-1.28,0-2.26-.09-3-.28-.94-.26-1.84-.74-2.7-1.44-1.51-1.26-2.23-3.08-2.23-5.58v-3.9h.01s0-20.44,0-20.44h2.87v7.31h6.45v2.91h-6.45v14.36c.02,1.6.63,2.74,1.86,3.48.65.38,1.72.58,3.19.58h1.37v3h0Z"/>
</svg>