<?xml version="1.0" encoding="UTF-8"?>
<svg id="_레이어_1" data-name="레이어 1" xmlns="http://www.w3.org/2000/svg" viewBox="0 0 200 100">
  <defs>
    <style>
      .cls-1 {
        fill: #6b6c6c;
      }

      .cls-1, .cls-2, .cls-3 {
        stroke-width: 0px;
      }

      .cls-2 {
        fill: #fff;
      }

      .cls-3 {
        fill: #a50034;
      }
    </style>
  </defs>
  <path class="cls-1" d="m123.93,34.78v4.46h6.07v1.13c0,4.59-1.83,7.03-6.75,8.61l1.86,4.26c3.39-.8,6.73-2.82,8.09-5.59,1.47,2.77,4.67,4.68,7.63,5.4l2.38-4.84c-4.29-.94-7.38-3.29-7.38-7.83v-1.11h5.96v-4.46h-17.82s-.03-.03-.03-.03Zm27.61-.61h-5.58v6.42h-5.22v4.62h5.22v11.71h4.89c.41-1.58.66-4.26.66-6.17v-16.58h.03,0Zm.58,26.9h-16.4c-.44,0-.58-.11-.58-.58v-6.59h-5.58v8.88c0,1.91.96,2.82,2.87,2.82h19.66v-4.57l.03.03h0Zm3.17-26.35v4.43h6.34v2.13c0,5.65-1.12,9.16-6.89,11.74l2.16,3.9c3.31-1.24,6.4-3.6,7.82-6.61,1.42,2.82,4.43,5.17,7.33,6.31l2.6-4.59c-5.6-2.13-7.52-5.42-7.52-10.79v-2.1h6.15v-4.43h-17.99s0,.03,0,.03Zm32.23,7.8h-5.52v-8.36h-5.33v31.47h4.67c.44-1.86.66-5.04.66-7.53v-11.04h5.52v-4.54Zm-109.7,22.64h12.74v-5.89h-14.35v-24.47h-6.94v30.36h8.56,0Zm27.98-11.57h5.63v5.32c-1.04.41-3.06.8-5,.8-6.23,0-8.31-3.21-8.31-9.72s1.97-9.88,8.23-9.88c3.47,0,5.44,1.11,7.08,3.21l4.32-4.01c-2.63-3.82-7.22-4.95-11.54-4.95-9.7,0-14.79,5.37-14.79,15.58s4.59,15.69,14.76,15.69c4.65,0,9.21-1.22,11.67-2.96v-14.73h-12.03v5.67l-.03-.03Z"/>
  <path class="cls-3" d="m35.69,73.5c12.82,0,23.21-10.52,23.21-23.5s-10.39-23.5-23.21-23.5-23.21,10.52-23.21,23.5,10.39,23.5,23.21,23.5Z"/>
  <path class="cls-2" d="m34.75,39.67v20.59h6.48v-1.83h-4.62v-18.77h-1.86Zm-6.49,5.62c1.53,0,2.79-1.27,2.79-2.82s-1.26-2.82-2.79-2.82-2.79,1.27-2.79,2.82,1.26,2.82,2.79,2.82Z"/>
  <path class="cls-2" d="m36.6,30.35h-.93c-10.72,0-19.41,8.83-19.41,19.68,0,5.26,2.02,10.19,5.69,13.9,3.69,3.71,8.56,5.76,13.75,5.76s10.06-2.05,13.75-5.76c3.66-3.7,5.7-8.69,5.69-13.9v-.88h-13.86v1.83h12.03v.25c-.63,9.27-8.25,16.64-17.58,16.64-4.7,0-9.1-1.85-12.44-5.23-3.32-3.35-5.18-7.88-5.17-12.59,0-4.76,1.83-9.25,5.17-12.6,3.34-3.38,7.74-5.23,12.44-5.23h.93v-1.83s-.06-.03-.06-.03Z"/>
</svg>