<?xml version="1.0" encoding="UTF-8"?>
<svg id="_레이어_1" data-name="레이어 1" xmlns="http://www.w3.org/2000/svg" viewBox="0 0 200 100">
  <defs>
    <style>
      .cls-1 {
        stroke-width: 0px;
      }
    </style>
  </defs>
  <rect class="cls-1" x="111.63" y="27.49" width="4.57" height="10.08"/>
  <rect class="cls-1" x="153.8" y="27.49" width="4.39" height="10.08"/>
  <rect class="cls-1" x="160.28" y="27.49" width="4.39" height="10.08"/>
  <path class="cls-1" d="m71.09,26.67c-3.23,0-5.86,2.63-5.86,5.86s2.63,5.86,5.86,5.86,5.86-2.63,5.86-5.86-2.62-5.86-5.86-5.86Zm2.2,5.86c0,1.21-.98,2.2-2.2,2.2s-2.2-.98-2.2-2.2.98-2.2,2.2-2.2,2.2.98,2.2,2.2Z"/>
  <path class="cls-1" d="m35.33,68.19v-32.22h6.16l13.44,20.49c.06.09.26.43.6,1.01.34.55.6,1.06.78,1.52v-23.01h5.89v32.22h-6.16l-13.44-20.62c-.06-.09-.26-.43-.6-1.01-.4-.68-.66-1.18-.78-1.52v23.15h-5.89Z"/>
  <path class="cls-1" d="m68.15,59.54v-14.18h5.8v12.84c0,3.47,1.55,5.2,4.65,5.2,1.62,0,2.92-.57,3.87-1.72.95-1.15,1.43-2.66,1.43-4.53v-11.78h5.8v22.83h-5.8v-3.59c-1.5,2.82-3.93,4.23-7.27,4.23-2.49,0-4.52-.81-6.1-2.44-1.58-1.62-2.37-3.91-2.37-6.85h0Z"/>
  <path class="cls-1" d="m100.97,35.97v16.3l6.95-6.91h7.18l-8.33,8.15,9.43,14.68h-6.68l-6.81-10.68-1.75,1.7v8.97h-5.8v-32.22h5.8Z"/>
  <path class="cls-1" d="m139.95,68.19h-5.89c-.73-1.01-1.11-2.23-1.11-3.64-1.6,2.85-4.15,4.28-7.64,4.28-2.27,0-4.12-.65-5.55-1.95s-2.14-3.03-2.14-5.18.77-3.89,2.3-5.15,3.48-2.05,5.85-2.39l6.85-1.06v-.88c0-2.3-1.39-3.45-4.19-3.45-1.32,0-2.34.24-3.04.73s-1.06,1.11-1.06,1.84c0,.22.03.4.09.55l-5.2,1.75c-.27-.61-.42-1.26-.42-1.93,0-1.87.88-3.51,2.62-4.9,1.75-1.39,4.08-2.09,7-2.09,6.66,0,9.99,2.76,9.99,8.28v9.53c0,2.3.5,4.19,1.52,5.66h0Zm-13.26-4.05c1.75,0,3.18-.57,4.28-1.72,1.11-1.15,1.66-2.79,1.66-4.9v-.42l-5.53.92c-2.55.43-3.82,1.55-3.82,3.36,0,.89.31,1.57.92,2.05s1.44.71,2.49.71Z"/>
  <path class="cls-1" d="m149.43,35.97v16.3l6.95-6.91h7.18l-8.33,8.15,9.43,14.68h-6.68l-6.81-10.68-1.75,1.7v8.97h-5.8v-32.22h5.8,0Z"/>
</svg>